simulation
nRows=24
nColumns=15
endheader
time  TH_x TH_y TH_z SC_y  SC_z  SC_x  AC_y  AC_z  AC_x  GH_y  GH_z  GH_yy  EL_x  PS_y
0.750174  0.000000  0.000000  0.000000  -41.385137  -1.907398  -10.000000  70.029176  33.283319  2.230896  -22.191334  23.193715  35.735362  13.752128  111.206783
0.750405  0.000000  0.000000  0.000000  -41.385137  -1.907398  -5.714286  70.899689  29.243989  0.554662  -22.191334  23.193715  35.735362  13.752128  111.206783
0.750637  0.000000  0.000000  0.000000  -41.385137  -1.907398  -1.428571  71.608312  25.185350  -0.993785  -22.191334  23.193715  35.735362  13.752128  111.206783
0.750868  0.000000  0.000000  0.000000  -41.385137  -1.907398  2.857143  72.178040  21.111635  -2.442066  -22.191334  23.193715  35.735362  13.752128  111.206783
0.751100  0.000000  0.000000  0.000000  -41.385137  -1.907398  7.142857  72.626148  17.026281  -3.812732  -22.191334  23.193715  35.735362  13.752128  111.206783
0.751331  0.000000  0.000000  0.000000  -41.385137  -1.907398  11.428571  72.965477  12.932152  -5.124671  -22.191334  23.193715  35.735362  13.752128  111.206783
0.751563  0.000000  0.000000  0.000000  -41.385137  -1.907398  15.714286  73.205290  8.831652  -6.394130  -22.191334  23.193715  35.735362  13.752128  111.206783
0.751794  0.000000  0.000000  0.000000  -41.385137  -1.907398  20.000000  73.351953  4.726998  -7.635629  -22.191334  23.193715  35.735362  13.752128  111.206783
0.752026  0.000000  0.000000  0.000000  -41.385137  -1.907398  24.285714  73.409212  0.620161  -8.862478  -22.191334  23.193715  35.735362  13.752128  111.206783
0.752257  0.000000  0.000000  0.000000  -41.385137  -1.907398  28.571429  73.378545  -3.486960  -10.087413  -22.191334  23.193715  35.735362  13.752128  111.206783
0.752489  0.000000  0.000000  0.000000  -41.385137  -1.907398  32.857143  73.259177  -7.592477  -11.323119  -22.191334  23.193715  35.735362  13.752128  111.206783
0.752721  0.000000  0.000000  0.000000  -41.385137  -1.907398  37.142857  73.048038  -11.694439  -12.582680  -22.191334  23.193715  35.735362  13.752128  111.206783
0.752952  0.000000  0.000000  0.000000  -41.385137  -1.907398  41.428571  72.739596  -15.790739  -13.880172  -22.191334  23.193715  35.735362  13.752128  111.206783
0.753184  0.000000  0.000000  0.000000  -41.385137  -1.907398  45.714286  72.325514  -19.879027  -15.231246  -22.191334  23.193715  35.735362  13.752128  111.206783
0.753415  0.000000  0.000000  0.000000  -41.385137  -1.907398  50.000000  71.794108  -23.956580  -16.653909  -22.191334  23.193715  35.735362  13.752128  111.206783
0.753647  0.000000  0.000000  0.000000  -37.871141  14.238916  -10.000000  51.312949  8.671672  2.025095  -9.141850  22.532650  23.211607  13.860718  111.949873
0.753878  0.000000  0.000000  0.000000  -37.871141  14.238916  -5.714286  51.640609  5.318102  -0.663824  -9.141850  22.532650  23.211607  13.860718  111.949873
0.754110  0.000000  0.000000  0.000000  -37.871141  14.238916  -1.428571  51.809363  1.953011  -3.323526  -9.141850  22.532650  23.211607  13.860718  111.949873
0.754341  0.000000  0.000000  0.000000  -37.871141  14.238916  2.857143  51.821778  -1.416267  -5.972579  -9.141850  22.532650  23.211607  13.860718  111.949873
0.754573  0.000000  0.000000  0.000000  -37.871141  14.238916  7.142857  51.678048  -4.782508  -8.629350  -9.141850  22.532650  23.211607  13.860718  111.949873
0.754804  0.000000  0.000000  0.000000  -37.871141  14.238916  11.428571  51.375976  -8.138420  -11.312348  -9.141850  22.532650  23.211607  13.860718  111.949873
0.755036  0.000000  0.000000  0.000000  -37.871141  14.238916  15.714286  50.910974  -11.476431  -14.040583  -9.141850  22.532650  23.211607  13.860718  111.949873
0.755267  0.000000  0.000000  0.000000  -37.871141  14.238916  20.000000  50.275934  -14.788508  -16.833923  -9.141850  22.532650  23.211607  13.860718  111.949873
0.755499  0.000000  0.000000  0.000000  -37.871141  14.238916  24.285714  49.461119  -18.065941  -19.713446  -9.141850  22.532650  23.211607  13.860718  111.949873
